<svg width="20.047621" height="17.666672" viewBox="0 0 20.0476 17.6667" fill="none" xmlns="http://www.w3.org/2000/svg" xmlns:xlink="http://www.w3.org/1999/xlink">
	<desc>
			Created with Pixso.
	</desc>
	<defs/>
	<path id="Vector" d="M6.1 0.84C6.32 1.07 6.45 1.37 6.45 1.69L6.45 4.07C6.45 4.38 6.32 4.68 6.1 4.91C5.88 5.13 5.57 5.26 5.26 5.26C4.94 5.26 4.64 5.13 4.42 4.91C4.19 4.68 4.07 4.38 4.07 4.07L4.07 1.69C4.07 1.37 4.19 1.07 4.42 0.84C4.64 0.62 4.94 0.5 5.26 0.5C5.57 0.5 5.88 0.62 6.1 0.84ZM19.54 2.88L6.45 2.88M4.07 2.88L0.5 2.88M6.1 12.75C6.32 12.97 6.45 13.27 6.45 13.59L6.45 15.97C6.45 16.29 6.32 16.59 6.1 16.81C5.88 17.04 5.57 17.16 5.26 17.16C4.94 17.16 4.64 17.04 4.42 16.81C4.19 16.59 4.07 16.29 4.07 15.97L4.07 13.59C4.07 13.27 4.19 12.97 4.42 12.75C4.64 12.53 4.94 12.4 5.26 12.4C5.57 12.4 5.88 12.53 6.1 12.75ZM19.54 14.78L6.45 14.78M4.07 14.78L0.5 14.78M15.62 6.8C15.85 7.02 15.97 7.32 15.97 7.64L15.97 10.02C15.97 10.33 15.85 10.64 15.62 10.86C15.4 11.08 15.1 11.21 14.78 11.21C14.47 11.21 14.16 11.08 13.94 10.86C13.72 10.64 13.59 10.33 13.59 10.02L13.59 7.64C13.59 7.32 13.72 7.02 13.94 6.8C14.16 6.57 14.47 6.45 14.78 6.45C15.1 6.45 15.4 6.57 15.62 6.8ZM13.59 8.83L0.5 8.83M19.54 8.83L15.97 8.83" stroke="#000000" stroke-opacity="1.000000" stroke-width="1.000000" stroke-linejoin="round"/>
</svg>
